<?xml version="1.0" encoding="utf-8"?>
<!-- Svg Vector Icons : http://www.onlinewebfonts.com/icon -->
<!DOCTYPE svg PUBLIC "-//W3C//DTD SVG 1.1//EN" "http://www.w3.org/Graphics/SVG/1.1/DTD/svg11.dtd">
<svg version="1.1" xmlns="http://www.w3.org/2000/svg" xmlns:xlink="http://www.w3.org/1999/xlink" x="0px" y="0px" viewBox="0 0 256 256" enable-background="new 0 0 256 256" xml:space="preserve">
<metadata> Svg Vector Icons : http://www.onlinewebfonts.com/icon </metadata>
<g><g><g><path fill="#000000" d="M120.5,10.1c-18.3,1.6-32.6,5.6-47.4,13.3C51.6,34.6,33.3,53.2,22.4,74.9C14,91.8,10,108.7,10,128c0,19.3,4,36.3,12.4,53c9.6,19.2,25.8,36.7,44.4,48c38.7,23.6,88.4,22.6,126.4-2.7c49.1-32.6,66.6-95.9,41.4-149.1c-5.9-12.3-13-22.3-23.2-32.6c-18.9-18.9-41-29.9-67.7-33.7C138.8,10.3,124.5,9.7,120.5,10.1z M128.5,40.3c1.8,1.4,5.6,6.4,6.9,9c1.8,3.6,2.4,7.1,1.7,11c-0.5,2.6-1.4,4.9-4.2,10.5c-2,3.9-4,8.3-4.4,9.6c-1.2,4.2-0.1,8.4,3.2,11.5c2,1.9,2.5,4.2,1.5,6.6c-0.8,2-2.8,3.1-5.6,3.1c-1.9,0-2.4-0.2-3.8-1.8c-0.9-1-2.4-3.1-3.4-4.8c-5.2-8.6-4.9-18.2,0.5-26c1.2-1.8,2.7-4.1,3.3-5.2c2.3-4.6,1.6-9.6-2-13.8c-3.2-3.8-3.3-6.9-0.2-9.6C123.8,39,126.8,38.9,128.5,40.3z M174.9,100.1c1.5,0.4,4.4,1.5,6.6,2.6c3.1,1.5,4.8,2.8,7.9,5.9c3.4,3.4,4.3,4.7,6.1,8.3c2.1,4.4,3.6,9.8,3.6,13.4c0,1.1-0.3,3.8-0.7,6.1c-0.4,2.3-1.2,8.1-1.8,13c-2.4,17-6.3,36.3-8.3,40.6c-2.1,4.6-6.8,8.7-11.8,10.1c-4.3,1.2-9.9,0.7-13.7-1.3c-0.7-0.4-1.6-0.7-1.9-0.7c-1.1,0-5.6-3.8-7.8-6.6c-3.5-4.5-7.3-13.3-9.5-22c-0.3-1.2-1-3-1.5-4.3l-0.9-2.2h-13.3c-15.6,0-13.9-0.7-15.8,6.8c-3.5,13.7-10.2,24.7-17.2,28.3c-3.4,1.8-8.9,2.9-13,2.6c-6.3-0.5-12-4.2-14.7-9.5c-2.2-4.3-4.5-16.6-8.1-41.7c-0.7-5.5-1.6-11.1-1.9-12.5c-0.8-3.7-0.3-10.1,1.2-14.6c2.6-8,8.9-15.1,16.4-18.7c2.4-1.1,5.4-2.3,6.8-2.6c3.6-0.9,11.5-0.7,15.2,0.2c3.1,0.8,7.8,3,9.7,4.5c1,0.8,2.3,0.9,20.5,0.9h19.3l2.4-1.8c3.9-3,8.2-4.7,14.6-5.7C165.4,98.9,172.1,99.4,174.9,100.1z"/><path fill="#000000" d="M87.3,111.3c-2.3,1.2-3.8,4.2-3.6,7.1c0.4,4.2,3.9,7.2,8.2,6.7c7.3-0.7,9.2-10.6,2.7-14C92.8,110.2,89.2,110.3,87.3,111.3z"/><path fill="#000000" d="M165.3,113.4c-0.6,0.3-1.6,1.2-2.2,2.1c-0.9,1.4-1,1.9-0.7,6.3l0.3,4.8l-5.5,0.2c-6,0.2-7.2,0.6-8.5,2.8c-1.2,1.9-1.2,3.8,0,5.7c1.4,2.3,2.4,2.6,8.4,2.5l5.5-0.1l-0.3,5c-0.3,5.6,0.1,7,2.4,8.2c2.8,1.5,6.5,0.4,7.6-2.2c0.4-1,0.5-2.9,0.3-6.2l-0.2-4.7l5.8-0.2l5.9-0.1l1.5-1.5c1.3-1.3,1.5-1.8,1.5-3.8c0-4.2-2.4-5.5-10.3-5.5h-4.3l0.2-4.5c0.3-5.5-0.2-7.3-2.4-8.4C168.5,112.6,166.9,112.5,165.3,113.4z"/><path fill="#000000" d="M73,125.8c-2.8,1.4-4.2,3.6-4.2,6.5c0,4.6,3,7.8,7.4,7.8c4.3,0,7.4-3.2,7.4-7.7C83.6,126.7,78,123.2,73,125.8z"/><path fill="#000000" d="M102.6,126.2c-2.1,1.3-3.1,2.6-3.7,4.9c-1.7,6.6,6.3,11.8,11.9,7.7c4-3,3.7-9.1-0.5-12.3C108.4,125,104.6,124.9,102.6,126.2z"/><path fill="#000000" d="M87.1,141.4c-3.2,1.8-4.7,5.8-3.3,9.1c1,2.4,1.9,3.4,4.3,4.4c3.6,1.6,7.5,0.1,9.3-3.6c2.4-5-0.6-10.3-6.1-10.7C89.5,140.5,88.4,140.7,87.1,141.4z"/></g></g></g>
</svg>